HIERARCHY
ROOT Hips
{
	OFFSET 0.000000 0.000007 97.120003
	CHANNELS 6 Xposition Yposition Zposition Yrotation Xrotation Zrotation
	JOINT RightUpLeg
	{
		OFFSET -11.000000 0.000000 0.000000
		CHANNELS 3 Yrotation Xrotation Zrotation
		JOINT RightLeg
		{
			OFFSET 0.000000 -0.000003 -45.062000
			CHANNELS 3 Yrotation Xrotation Zrotation
			JOINT RightFoot
			{
				OFFSET 0.000000 -0.000003 -42.057999
				CHANNELS 3 Yrotation Xrotation Zrotation
				End Site
				{
					OFFSET 0.000000 -15.120001 -9.999999
				}
			}
		}
	}
	JOINT LeftUpLeg
	{
		OFFSET 11.000000 0.000000 0.000000
		CHANNELS 3 Yrotation Xrotation Zrotation
		JOINT LeftLeg
		{
			OFFSET 0.000000 -0.000003 -45.062000
			CHANNELS 3 Yrotation Xrotation Zrotation
			JOINT LeftFoot
			{
				OFFSET 0.000000 -0.000003 -42.057999
				CHANNELS 3 Yrotation Xrotation Zrotation
				End Site
				{
					OFFSET 0.000000 -15.120001 -9.999999
				}
			}
		}
	}
	JOINT Spine
	{
		OFFSET 0.000000 0.000001 8.120003
		CHANNELS 3 Yrotation Xrotation Zrotation
		JOINT Spine1
		{
			OFFSET 0.000000 0.000001 17.979996
			CHANNELS 3 Yrotation Xrotation Zrotation
			JOINT Spine2
			{
				OFFSET 0.000000 0.000001 12.759995
				CHANNELS 3 Yrotation Xrotation Zrotation
				JOINT Neck
				{
					OFFSET 0.000000 0.000001 19.139999
					CHANNELS 3 Yrotation Xrotation Zrotation
					JOINT Neck1
					{
						OFFSET 0.000000 0.000000 4.250000
						CHANNELS 3 Yrotation Xrotation Zrotation
						JOINT Head
						{
							OFFSET 0.000000 0.000000 4.250000
							CHANNELS 3 Yrotation Xrotation Zrotation
							End Site
							{
								OFFSET 0.000000 0.000001 19.119995
							}
						}
					}
				}
				JOINT RightShoulder
				{
					OFFSET -2.900000 0.000001 13.339996
					CHANNELS 3 Yrotation Xrotation Zrotation
					JOINT RightArm
					{
						OFFSET -16.100000 0.000000 0.000000
						CHANNELS 3 Yrotation Xrotation Zrotation
						JOINT RightForeArm
						{
							OFFSET -28.000000 0.000000 0.000000
							CHANNELS 3 Yrotation Xrotation Zrotation
							JOINT RightHand
							{
								OFFSET -26.000000 0.000000 0.000000
								CHANNELS 3 Yrotation Xrotation Zrotation
								JOINT RightHandThumb1
								{
									OFFSET -1.936996 -2.518000 -0.483994
									CHANNELS 3 Yrotation Xrotation Zrotation
									JOINT RightHandThumb2
									{
										OFFSET -3.872002 0.000000 0.000000
										CHANNELS 3 Yrotation Xrotation Zrotation
										JOINT RightHandThumb3
										{
											OFFSET -2.690002 0.000000 0.000000
											CHANNELS 3 Yrotation Xrotation Zrotation
											End Site
											{
												OFFSET -2.537003 0.000000 0.000000
											}
										}
									}
								}
								JOINT RightInHandIndex
								{
									OFFSET -3.389000 -2.080000 0.535004
									CHANNELS 3 Yrotation Xrotation Zrotation
									JOINT RightHandIndex1
									{
										OFFSET -5.485001 -1.051000 -0.095993
										CHANNELS 3 Yrotation Xrotation Zrotation
										JOINT RightHandIndex2
										{
											OFFSET -3.806000 0.000000 0.000000
											CHANNELS 3 Yrotation Xrotation Zrotation
											JOINT RightHandIndex3
											{
												OFFSET -2.157997 0.000000 0.000000
												CHANNELS 3 Yrotation Xrotation Zrotation
												End Site
												{
													OFFSET -1.898003 0.000000 0.000000
												}
											}
										}
									}
								}
								JOINT RightInHandMiddle
								{
									OFFSET -3.556000 -0.796000 0.544006
									CHANNELS 3 Yrotation Xrotation Zrotation
									JOINT RightHandMiddle1
									{
										OFFSET -5.441002 -0.330000 -0.087997
										CHANNELS 3 Yrotation Xrotation Zrotation
										JOINT RightHandMiddle2
										{
											OFFSET -4.153000 0.000000 0.000000
											CHANNELS 3 Yrotation Xrotation Zrotation
											JOINT RightHandMiddle3
											{
												OFFSET -2.602997 0.000000 0.000000
												CHANNELS 3 Yrotation Xrotation Zrotation
												End Site
												{
													OFFSET -2.075996 0.000000 0.000000
												}
											}
										}
									}
								}
								JOINT RightInHandRing
								{
									OFFSET -3.539001 0.136000 0.565994
									CHANNELS 3 Yrotation Xrotation Zrotation
									JOINT RightHandRing1
									{
										OFFSET -4.873001 0.504000 -0.022995
										CHANNELS 3 Yrotation Xrotation Zrotation
										JOINT RightHandRing2
										{
											OFFSET -3.619003 0.000000 0.000000
											CHANNELS 3 Yrotation Xrotation Zrotation
											JOINT RightHandRing3
											{
												OFFSET -2.511002 0.000000 0.000000
												CHANNELS 3 Yrotation Xrotation Zrotation
												End Site
												{
													OFFSET -1.952003 0.000000 0.000000
												}
											}
										}
									}
								}
								JOINT RightInHandPinky
								{
									OFFSET -3.323997 1.264000 0.494003
									CHANNELS 3 Yrotation Xrotation Zrotation
									JOINT RightHandPinky1
									{
										OFFSET -4.353996 1.147000 -0.022995
										CHANNELS 3 Yrotation Xrotation Zrotation
										JOINT RightHandPinky2
										{
											OFFSET -2.898003 0.000000 0.000000
											CHANNELS 3 Yrotation Xrotation Zrotation
											JOINT RightHandPinky3
											{
												OFFSET -1.831001 0.000000 0.000000
												CHANNELS 3 Yrotation Xrotation Zrotation
												End Site
												{
													OFFSET -1.730003 0.000000 0.000000
												}
											}
										}
									}
								}
							}
						}
					}
				}
				JOINT LeftShoulder
				{
					OFFSET 2.900000 0.000001 13.339996
					CHANNELS 3 Yrotation Xrotation Zrotation
					JOINT LeftArm
					{
						OFFSET 16.100000 0.000000 0.000000
						CHANNELS 3 Yrotation Xrotation Zrotation
						JOINT LeftForeArm
						{
							OFFSET 28.000000 0.000000 0.000000
							CHANNELS 3 Yrotation Xrotation Zrotation
							JOINT LeftHand
							{
								OFFSET 26.000000 0.000000 0.000000
								CHANNELS 3 Yrotation Xrotation Zrotation
								JOINT LeftHandThumb1
								{
									OFFSET 1.936996 -2.518000 -0.483994
									CHANNELS 3 Yrotation Xrotation Zrotation
									JOINT LeftHandThumb2
									{
										OFFSET 3.872002 0.000000 0.000000
										CHANNELS 3 Yrotation Xrotation Zrotation
										JOINT LeftHandThumb3
										{
											OFFSET 2.690002 0.000000 0.000000
											CHANNELS 3 Yrotation Xrotation Zrotation
											End Site
											{
												OFFSET 2.537003 0.000000 0.000000
											}
										}
									}
								}
								JOINT LeftInHandIndex
								{
									OFFSET 3.389000 -2.080000 0.535004
									CHANNELS 3 Yrotation Xrotation Zrotation
									JOINT LeftHandIndex1
									{
										OFFSET 5.485001 -1.051000 -0.095993
										CHANNELS 3 Yrotation Xrotation Zrotation
										JOINT LeftHandIndex2
										{
											OFFSET 3.806000 0.000000 0.000000
											CHANNELS 3 Yrotation Xrotation Zrotation
											JOINT LeftHandIndex3
											{
												OFFSET 2.157997 0.000000 0.000000
												CHANNELS 3 Yrotation Xrotation Zrotation
												End Site
												{
													OFFSET 1.898003 0.000000 0.000000
												}
											}
										}
									}
								}
								JOINT LeftInHandMiddle
								{
									OFFSET 3.556000 -0.796000 0.544006
									CHANNELS 3 Yrotation Xrotation Zrotation
									JOINT LeftHandMiddle1
									{
										OFFSET 5.441002 -0.330000 -0.087997
										CHANNELS 3 Yrotation Xrotation Zrotation
										JOINT LeftHandMiddle2
										{
											OFFSET 4.153000 0.000000 0.000000
											CHANNELS 3 Yrotation Xrotation Zrotation
											JOINT LeftHandMiddle3
											{
												OFFSET 2.602997 0.000000 0.000000
												CHANNELS 3 Yrotation Xrotation Zrotation
												End Site
												{
													OFFSET 2.075996 0.000000 0.000000
												}
											}
										}
									}
								}
								JOINT LeftInHandRing
								{
									OFFSET 3.539001 0.136000 0.565994
									CHANNELS 3 Yrotation Xrotation Zrotation
									JOINT LeftHandRing1
									{
										OFFSET 4.873001 0.504000 -0.022995
										CHANNELS 3 Yrotation Xrotation Zrotation
										JOINT LeftHandRing2
										{
											OFFSET 3.619003 0.000000 0.000000
											CHANNELS 3 Yrotation Xrotation Zrotation
											JOINT LeftHandRing3
											{
												OFFSET 2.511002 0.000000 0.000000
												CHANNELS 3 Yrotation Xrotation Zrotation
												End Site
												{
													OFFSET 1.952003 0.000000 0.000000
												}
											}
										}
									}
								}
								JOINT LeftInHandPinky
								{
									OFFSET 3.323997 1.264000 0.494003
									CHANNELS 3 Yrotation Xrotation Zrotation
									JOINT LeftHandPinky1
									{
										OFFSET 4.353996 1.147000 -0.022995
										CHANNELS 3 Yrotation Xrotation Zrotation
										JOINT LeftHandPinky2
										{
											OFFSET 2.898003 0.000000 0.000000
											CHANNELS 3 Yrotation Xrotation Zrotation
											JOINT LeftHandPinky3
											{
												OFFSET 1.831001 0.000000 0.000000
												CHANNELS 3 Yrotation Xrotation Zrotation
												End Site
												{
													OFFSET 1.730003 0.000000 0.000000
												}
											}
										}
									}
								}
							}
						}
					}
				}
			}
		}
	}
}
MOTION
Frames: 4
Frame Time: 0.033367
0.064387 -0.036420 101.489044 0.564290 134.048213 1.328802 0.324232 -128.877487 133.634441 -0.303959 0.315939 69.198750 -2.351623 5.744062 156.381402 -0.343240 -128.883921 -133.617625 0.303965 0.315919 -69.195328 1.638760 6.038693 -156.324916 0.238851 -132.934606 1.240982 -0.000001 -25.590110 -0.000000 -0.093208 19.227242 1.267685 -3.764989 30.661440 -1.030113 -0.000000 0.000000 -0.000000 -1.512456 -28.435374 2.142084 -14.865014 5.753196 -1.940656 -64.567404 1.841942 -9.477184 -0.000032 -0.000021 16.207460 -5.585061 37.877313 -14.436682 12.776040 51.357668 44.437361 6.173996 -4.842970 -4.185067 173.086050 31.033033 -13.406278 0.000001 0.000000 0.000003 -0.750352 13.437749 20.386895 -10.955343 3.266639 1.856635 11.363827 -1.646398 3.314724 0.000000 0.000000 -0.000001 -4.692959 16.152317 22.799788 -12.224059 2.908355 1.936057 11.415278 -1.130332 2.223474 0.000001 0.000000 0.000000 -6.987901 17.678936 23.272097 -14.326685 2.627904 2.319544 11.454786 -0.479562 0.523144 0.000002 0.000001 0.000002 -14.439423 18.644524 21.679109 -15.161026 2.076695 2.737940 11.459391 -0.013833 -0.989741 14.861045 5.753241 1.940444 62.978511 4.544865 10.118838 0.000000 0.000026 -27.824538 24.879159 39.835555 36.556579 -23.499858 59.467343 -39.065940 5.139420 -10.170217 -10.477378 -98.762404 26.094113 12.780562 0.000000 -0.000002 0.000002 0.565351 13.510241 -21.715777 10.441940 3.238101 -1.828264 -68.236595 -1.301591 -3.446413 -0.000001 -0.000000 0.000000 4.207388 15.976856 -22.927029 11.367952 3.261747 -1.602414 -58.249506 -1.271183 -2.400382 -0.000001 0.000003 0.000004 4.008911 17.871426 -23.079928 11.319452 2.423573 -3.300174 -42.008723 -1.643117 -0.297038 -0.000000 -0.000002 0.000004 4.873911 20.506062 -18.239556 11.279747 0.947350 -10.723661 -25.673223 -5.295396 4.512515 
0.201665 -0.096525 101.375053 0.521253 134.134684 1.153194 0.341019 -128.912649 133.678413 -0.303964 0.315934 69.198750 -2.309214 5.818624 156.159175 -0.325145 -128.944792 -133.591779 0.303979 0.315906 -69.195328 1.713036 6.034326 -156.475386 0.252472 -132.932584 1.234326 -0.000002 -25.590106 -0.000000 -0.088154 19.227037 1.225519 -3.307632 30.055575 -0.844013 9.527848 -9.803890 -1.637034 -10.657561 -18.146098 1.769374 -14.865021 5.753201 -1.940654 -64.586617 1.022654 -9.029011 -0.000014 -0.000022 14.337766 -4.586967 37.452523 -12.741701 19.389092 55.354940 56.327054 5.744774 -9.081582 -10.246713 172.955075 31.501386 -13.474252 -0.000001 -0.000004 -0.000003 -3.689672 14.522495 21.764195 -11.156279 3.043200 0.164156 11.379096 -1.390225 3.296134 -0.000001 0.000002 -0.000002 -7.959122 16.856277 22.302912 -12.871901 3.355944 1.350879 11.420536 -0.961067 2.301009 0.000000 0.000006 -0.000003 -11.161064 18.140040 21.665092 -15.036335 3.724491 2.237726 11.455256 -0.326774 0.684695 -0.000000 0.000002 0.000001 -17.943402 18.561751 19.096039 -16.765920 3.540121 3.645279 11.459395 -0.017512 -0.789116 14.861049 5.753248 1.940444 62.978046 3.690945 9.135069 -0.000004 0.000018 -24.603146 24.910890 42.686644 35.362929 -34.193529 63.831369 -48.740127 7.195296 -15.896039 -11.026666 -99.036971 26.113558 12.782719 0.000001 -0.000003 -0.000000 4.210112 14.865137 -22.831497 10.120926 3.025017 -0.067153 -69.843144 -1.041885 -3.380891 0.000001 0.000001 0.000002 4.645219 16.948377 -22.288676 11.352336 2.777752 -2.203072 -57.147172 -1.382616 -2.306538 0.000000 -0.000001 0.000002 4.405739 18.685804 -21.116665 11.209287 2.859165 -4.996447 -39.966971 -2.339722 -0.026477 0.000000 0.000001 0.000000 6.006489 20.176379 -15.469619 10.691601 3.640424 -11.914584 -21.978130 -7.320180 3.974680 
0.371415 -0.094877 101.273041 0.668166 134.172414 1.167716 0.396153 -128.949832 133.582217 -0.303956 0.315941 69.198757 -2.214154 5.858330 156.151170 -0.271408 -128.976825 -133.615084 0.303971 0.315912 -69.195321 1.809818 5.997105 -156.450264 0.255465 -132.932365 1.217135 -0.000001 -25.590106 -0.000001 -0.081426 19.225818 1.179857 -2.506497 29.130125 -0.227065 9.509059 -9.819471 -1.636317 -10.496104 -17.781563 1.666142 -14.865017 5.753199 -1.940655 -64.714403 -0.242739 -8.594344 0.000012 -0.000037 12.162768 -3.376655 38.734122 -10.611270 18.427587 56.674393 56.290137 5.433043 -9.113730 -10.303042 173.040848 31.195137 -13.429638 -0.000000 0.000000 0.000001 -4.219147 14.779196 22.020919 -11.449808 3.082267 0.170207 11.379801 -1.383031 3.284723 -0.000001 0.000002 0.000000 -8.671441 17.078881 22.108315 -13.350470 3.397220 1.291248 11.420668 -0.959588 2.297157 -0.000000 0.000001 0.000001 -11.741847 18.291754 21.509417 -15.648061 3.763013 2.176340 11.455307 -0.320709 0.687210 0.000001 0.000001 -0.000000 -19.049140 18.757970 18.801508 -17.467661 3.562787 3.587924 11.459377 -0.015463 -0.820823 14.861045 5.753245 1.940441 63.007655 2.407284 8.032535 -0.000000 0.000006 -20.821345 24.816049 46.249700 34.018345 -34.484450 64.051766 -48.975127 7.376155 -15.882574 -11.082590 -99.000382 26.172291 12.789262 0.000000 -0.000002 -0.000001 4.966090 15.187566 -22.819857 9.609473 2.986053 -0.132245 -71.019030 -1.125107 -3.311419 -0.000001 0.000001 0.000000 4.625650 17.200156 -22.060121 11.346706 2.524402 -2.551448 -58.531320 -1.419554 -2.212209 0.000001 -0.000001 -0.000000 4.432087 19.187958 -20.558116 11.190866 2.640319 -5.804156 -40.862177 -2.526727 0.263439 0.000001 -0.000003 -0.000002 6.078132 20.418092 -15.109488 10.617325 3.797434 -12.509242 -22.864318 -7.649994 4.219345 
0.534753 0.015124 101.189041 0.847059 134.105792 1.239075 0.438110 -128.950707 133.620029 -0.303953 0.315943 69.198764 -2.127538 5.817460 156.364791 -0.232896 -128.964162 -133.659671 0.303971 0.315910 -69.195315 1.887039 5.903613 -156.213106 0.249989 -132.933964 1.193524 0.000001 -25.590120 0.000000 -0.074027 19.223941 1.131107 -1.642060 28.285381 0.244628 9.489840 -9.835145 -1.635523 -10.328011 -17.430359 1.560360 -14.865019 5.753208 -1.940656 -64.905041 -1.706049 -8.167223 0.000003 -0.000023 9.928614 -2.047075 40.210673 -8.479421 17.192740 58.262982 56.121598 5.128967 -9.140643 -10.396432 173.148738 30.807063 -13.374071 0.000001 -0.000004 0.000000 -4.805579 15.064069 22.285825 -11.801644 3.126682 0.166799 11.378567 -1.409294 3.273130 0.000001 -0.000002 0.000001 -9.468916 17.326122 21.886776 -13.913832 3.442716 1.218791 11.420799 -0.958524 2.291860 0.000002 -0.000000 0.000000 -12.387620 18.459449 21.334046 -16.365712 3.804666 2.101796 11.455336 -0.317062 0.689908 0.000002 -0.000001 0.000002 -20.353322 18.982894 18.452212 -18.309739 3.587235 3.512160 11.459702 -0.036245 -0.859156 14.861049 5.753257 1.940446 63.093012 1.053157 7.102825 0.000013 -0.000004 -17.123950 24.428084 49.855511 32.536248 -34.806139 64.299421 -49.234421 7.597201 -15.861694 -11.138043 -98.958779 26.234630 12.796216 0.000001 -0.000002 0.000000 5.017263 15.573535 -22.809398 9.643411 2.681837 -0.451931 -72.301446 -1.247518 -3.215133 0.000002 -0.000002 -0.000000 4.608139 17.493882 -21.785720 11.344289 2.218257 -2.965107 -60.218404 -1.459402 -2.108823 0.000002 0.000000 0.000003 4.487467 19.756309 -19.888218 11.173800 2.408079 -6.759998 -42.023979 -2.732758 0.613078 0.000000 0.000002 0.000000 6.193945 20.683216 -14.623235 10.519822 4.003894 -13.214596 -23.944948 -8.036829 4.522692 
